<svg width="32" height="32" viewBox="0 0 32 32" fill="none" xmlns="http://www.w3.org/2000/svg">
<g clip-path="url(#clip0_32_302)">
<path d="M9.66548 12.1675L15.7305 8.65746C15.8066 8.61926 15.8906 8.59937 15.9757 8.59937C16.0609 8.59937 16.1449 8.61926 16.221 8.65746L22.3117 12.1675C22.4667 12.245 22.57 12.4255 22.57 12.5802V19.6002C22.57 19.781 22.4667 19.9357 22.3117 20.039L16.2467 23.549C16.1706 23.5872 16.0866 23.607 16.0015 23.607C15.9163 23.607 15.8323 23.5872 15.7562 23.549L9.66548 20.039C9.51048 19.9615 9.40723 19.781 9.40723 19.6002V12.5802C9.40723 12.4252 9.51048 12.2447 9.66548 12.1675Z" fill="#8080F2"/>
<path d="M31.7838 15.3675L24.5313 2.72126C24.2733 2.25676 23.783 1.92126 23.241 1.92126H8.73628C8.22028 1.92126 7.72978 2.25676 7.44603 2.72126L0.193528 15.342C0.0665971 15.571 0 15.8286 0 16.0904C0 16.3522 0.0665971 16.6098 0.193528 16.8388L7.44603 29.382C7.70403 29.8465 8.19428 30.0788 8.73628 30.0788H23.2668C23.783 30.0788 24.2733 29.8465 24.5573 29.4078L31.8098 16.8645C32.0678 16.3485 32.0678 15.8063 31.7838 15.3675ZM25.77 21.4325C25.77 21.6133 25.6668 21.7938 25.486 21.8713L16.2465 27.2138C16.1699 27.2643 16.0802 27.2912 15.9884 27.2912C15.8966 27.2912 15.8069 27.2643 15.7303 27.2138L6.46528 21.8973C6.31028 21.794 6.18128 21.6393 6.18128 21.4585V10.7478C6.18128 10.5673 6.28453 10.3865 6.46528 10.3093L15.7305 4.96676C15.8071 4.91623 15.8969 4.88929 15.9887 4.88929C16.0804 4.88929 16.1702 4.91623 16.2468 4.96676L25.5123 10.3093C25.667 10.4123 25.796 10.5673 25.796 10.7478V21.4328L25.77 21.4325Z" fill="#4B32C3"/>
</g>
<defs>
<clipPath id="clip0_32_302">
<rect width="32" height="32" fill="white"/>
</clipPath>
</defs>
</svg>
