<svg width="32" height="32" viewBox="0 0 32 32" fill="none" xmlns="http://www.w3.org/2000/svg">
<g clip-path="url(#clip0_32_266)">
<mask id="mask0_32_266" style="mask-type:alpha" maskUnits="userSpaceOnUse" x="0" y="0" width="32" height="32">
<path fill-rule="evenodd" clip-rule="evenodd" d="M22.6918 31.7815C22.9464 31.8808 23.2188 31.9266 23.4919 31.9161C23.765 31.9056 24.033 31.8391 24.2793 31.7205L30.8675 28.5503C31.2068 28.387 31.4931 28.1312 31.6934 27.8123C31.8938 27.4935 32.0001 27.1246 32 26.748V5.25229C32.0001 4.87569 31.8939 4.50672 31.6935 4.18785C31.4932 3.86897 31.2069 3.61313 30.8675 3.44979L24.2793 0.280036C23.907 0.100912 23.4882 0.0419361 23.081 0.11127C22.6737 0.180604 22.2981 0.374819 22.006 0.667036L9.39353 12.1735L3.90003 8.00329C3.65222 7.81513 3.34635 7.71966 3.03551 7.73345C2.72466 7.74724 2.42845 7.86942 2.19828 8.07879L0.436279 9.68154C0.298966 9.80643 0.189232 9.9586 0.114097 10.1283C0.0389622 10.2981 8.05369e-05 10.4816 -6.06493e-05 10.6672C-0.000201835 10.8528 0.0384006 11.0364 0.113277 11.2063C0.188154 11.3761 0.297656 11.5284 0.434779 11.6535L5.19903 16L0.435029 20.3468C0.297981 20.4719 0.188544 20.6242 0.113714 20.7941C0.0388839 20.9639 0.000306531 21.1474 0.000447703 21.333C0.000588874 21.5186 0.0394455 21.7021 0.114534 21.8718C0.189622 22.0415 0.29929 22.1936 0.436529 22.3185L2.19853 23.9213C2.42865 24.1307 2.72485 24.253 3.03571 24.2668C3.34657 24.2807 3.65246 24.1852 3.90028 23.997L9.39378 19.827L22.0063 31.3333C22.2013 31.5286 22.4346 31.6813 22.6918 31.7815ZM24.0048 8.73579L14.435 16L24.005 23.2645L24.0048 8.73579Z" fill="white"/>
</mask>
<g mask="url(#mask0_32_266)">
<path d="M30.8677 3.45496L24.2742 0.27996C23.9018 0.100718 23.4829 0.0416777 23.0754 0.111012C22.668 0.180347 22.2921 0.374626 22 0.66696L0.415475 20.3467C0.278324 20.4718 0.168795 20.6241 0.0938987 20.7939C0.0190024 20.9637 -0.019611 21.1473 -0.0194698 21.3329C-0.0193286 21.5185 0.0195641 21.7021 0.0947187 21.8718C0.169873 22.0415 0.279634 22.1936 0.416975 22.3185L2.17997 23.9212C2.4103 24.1306 2.70666 24.2529 3.01766 24.2667C3.32867 24.2805 3.63471 24.1851 3.88272 23.997L29.8755 4.27821C30.7475 3.61671 32 4.23871 32 5.33321V5.25671C32 4.88023 31.8937 4.5114 31.6934 4.19263C31.4931 3.87386 31.2069 3.61833 30.8677 3.45496Z" fill="#0065A9"/>
<g filter="url(#filter0_d_32_266)">
<path d="M30.8677 28.5453L24.2742 31.7198C23.9019 31.8991 23.483 31.9582 23.0755 31.8889C22.6681 31.8197 22.2922 31.6255 22 31.3333L0.415475 11.6533C0.278324 11.5282 0.168795 11.3759 0.0938987 11.2061C0.0190024 11.0362 -0.019611 10.8527 -0.0194698 10.667C-0.0193286 10.4814 0.0195641 10.2979 0.0947187 10.1282C0.169873 9.95849 0.279634 9.80635 0.416975 9.6815L2.17997 8.07875C2.4103 7.86932 2.70666 7.74709 3.01766 7.73325C3.32867 7.71942 3.63471 7.81485 3.88272 8.003L29.8755 27.7215C30.7475 28.3833 32 27.7613 32 26.6668V26.7433C32 27.1197 31.8937 27.4886 31.6934 27.8073C31.4931 28.1261 31.2069 28.3819 30.8677 28.5453Z" fill="#007ACC"/>
</g>
<g filter="url(#filter1_d_32_266)">
<path d="M24.2745 31.7205C23.902 31.8996 23.483 31.9586 23.0756 31.8892C22.6681 31.8198 22.2922 31.6256 22 31.3333C22.738 32.0713 24 31.5485 24 30.5048V1.49501C24 0.451257 22.738 -0.071493 22 0.666757C22.2922 0.374458 22.6681 0.180187 23.0756 0.110812C23.483 0.041437 23.902 0.100386 24.2745 0.279507L30.8668 3.45001C31.2062 3.61325 31.4927 3.86904 31.6932 4.18792C31.8937 4.50681 32 4.87583 32 5.25251V26.748C32 27.1247 31.8937 27.4937 31.6932 27.8126C31.4927 28.1315 31.2062 28.3873 30.8668 28.5505L24.2745 31.7205Z" fill="#1F9CF0"/>
</g>
<path style="mix-blend-mode:overlay" opacity="0.25" fill-rule="evenodd" clip-rule="evenodd" d="M22.6725 31.7815C22.9271 31.8808 23.1994 31.9266 23.4725 31.9161C23.7455 31.9056 24.0135 31.839 24.2597 31.7205L30.848 28.5503C31.1873 28.3869 31.4736 28.1311 31.674 27.8122C31.8743 27.4933 31.9806 27.1244 31.9805 26.7478V5.25229C31.9806 4.87569 31.8743 4.50672 31.674 4.18785C31.4736 3.86897 31.1873 3.61313 30.848 3.44979L24.2597 0.280036C23.8875 0.100912 23.4687 0.0419361 23.0615 0.11127C22.6542 0.180604 22.2785 0.374819 21.9865 0.667036L9.374 12.1735L3.8805 8.00354C3.63269 7.81538 3.32682 7.71991 3.01598 7.7337C2.70513 7.74749 2.40892 7.86967 2.17875 8.07904L0.416748 9.68179C0.279469 9.80669 0.169767 9.95888 0.0946537 10.1286C0.019541 10.2983 -0.0193287 10.4819 -0.0194698 10.6675C-0.019611 10.8531 0.0189794 11.0366 0.0938339 11.2065C0.168688 11.3763 0.27816 11.5287 0.415248 11.6538L5.1795 16L0.415498 20.3465C0.278375 20.4716 0.168873 20.624 0.0939968 20.7938C0.0191202 20.9637 -0.0194822 21.1473 -0.019341 21.3329C-0.0191998 21.5185 0.0196818 21.702 0.0948167 21.8717C0.169952 22.0415 0.279685 22.1936 0.416998 22.3185L2.179 23.9213C2.40914 24.1307 2.70534 24.2529 3.01618 24.2667C3.32703 24.2806 3.63291 24.1852 3.88075 23.997L9.3745 19.8268L21.987 31.3333C22.1819 31.5286 22.4154 31.6813 22.6725 31.7815ZM23.9855 8.73554L14.4155 16L23.9855 23.2643V8.73554Z" fill="url(#paint0_linear_32_266)"/>
</g>
</g>
<defs>
<filter id="filter0_d_32_266" x="-8.35281" y="-0.601406" width="48.6861" height="40.8519" filterUnits="userSpaceOnUse" color-interpolation-filters="sRGB">
<feFlood flood-opacity="0" result="BackgroundImageFix"/>
<feColorMatrix in="SourceAlpha" type="matrix" values="0 0 0 0 0 0 0 0 0 0 0 0 0 0 0 0 0 0 127 0" result="hardAlpha"/>
<feOffset/>
<feGaussianBlur stdDeviation="4.16667"/>
<feColorMatrix type="matrix" values="0 0 0 0 0 0 0 0 0 0 0 0 0 0 0 0 0 0 0.25 0"/>
<feBlend mode="overlay" in2="BackgroundImageFix" result="effect1_dropShadow_32_266"/>
<feBlend mode="normal" in="SourceGraphic" in2="effect1_dropShadow_32_266" result="shape"/>
</filter>
<filter id="filter1_d_32_266" x="13.6667" y="-8.25082" width="26.6667" height="48.5016" filterUnits="userSpaceOnUse" color-interpolation-filters="sRGB">
<feFlood flood-opacity="0" result="BackgroundImageFix"/>
<feColorMatrix in="SourceAlpha" type="matrix" values="0 0 0 0 0 0 0 0 0 0 0 0 0 0 0 0 0 0 127 0" result="hardAlpha"/>
<feOffset/>
<feGaussianBlur stdDeviation="4.16667"/>
<feColorMatrix type="matrix" values="0 0 0 0 0 0 0 0 0 0 0 0 0 0 0 0 0 0 0.25 0"/>
<feBlend mode="overlay" in2="BackgroundImageFix" result="effect1_dropShadow_32_266"/>
<feBlend mode="normal" in="SourceGraphic" in2="effect1_dropShadow_32_266" result="shape"/>
</filter>
<linearGradient id="paint0_linear_32_266" x1="15.9805" y1="0.0825111" x2="15.9805" y2="31.9175" gradientUnits="userSpaceOnUse">
<stop stop-color="white"/>
<stop offset="1" stop-color="white" stop-opacity="0"/>
</linearGradient>
<clipPath id="clip0_32_266">
<rect width="32" height="32" fill="white"/>
</clipPath>
</defs>
</svg>
