<svg width="32" height="32" viewBox="0 0 32 32" fill="none" xmlns="http://www.w3.org/2000/svg">
<path d="M4.7035 28.5308L2.19 0.338013H29.81L27.294 28.5265L15.9833 31.6623L4.7035 28.5308Z" fill="#1572B6"/>
<path d="M16.0002 29.2654L25.14 26.7314L27.2902 2.64294H16.0002V29.2654Z" fill="#33A9DC"/>
<path d="M16.0002 12.8573H20.5757L20.8917 9.31651H16.0002V5.85876H24.6707L24.5877 6.78651L23.7377 16.315H16.0002V12.8573Z" fill="white"/>
<path d="M16.0207 21.8372L16.0055 21.8417L12.1547 20.8019L11.9085 18.0442H8.43799L8.92224 23.4734L16.005 25.4392L16.0207 25.4347V21.8372Z" fill="#EBEBEB"/>
<path d="M20.2818 16.1687L19.8653 20.7992L16.0088 21.8402V25.4377L23.0973 23.4732L23.1493 22.889L23.7508 16.1687H20.2818Z" fill="white"/>
<path d="M16.012 5.85876V9.31651H7.65999L7.59074 8.53952L7.43324 6.78651L7.35049 5.85876H16.012ZM16.0002 12.8578V16.3155H12.198L12.1287 15.5385L11.971 13.7855L11.8885 12.8578H16.0002Z" fill="#EBEBEB"/>
</svg>
