<svg width="42" height="41" viewBox="0 0 42 41" fill="none" xmlns="http://www.w3.org/2000/svg">
<path d="M14.2652 32.5992C14.2652 32.7633 14.0766 32.8945 13.8387 32.8945C13.568 32.9191 13.3793 32.7879 13.3793 32.5992C13.3793 32.4352 13.568 32.3039 13.8059 32.3039C14.052 32.2793 14.2652 32.4105 14.2652 32.5992ZM11.7141 32.2301C11.6566 32.3941 11.8207 32.5828 12.0668 32.632C12.2801 32.7141 12.5262 32.632 12.5754 32.468C12.6246 32.3039 12.4688 32.1152 12.2227 32.0414C12.0094 31.984 11.7715 32.066 11.7141 32.2301ZM15.3398 32.0906C15.102 32.148 14.9379 32.3039 14.9625 32.4926C14.9871 32.6566 15.2004 32.7633 15.4465 32.7059C15.6844 32.6484 15.8484 32.4926 15.8238 32.3285C15.7992 32.1727 15.5777 32.066 15.3398 32.0906ZM20.7375 0.65625C9.35977 0.65625 0.65625 9.29414 0.65625 20.6719C0.65625 29.7691 6.38203 37.5539 14.5605 40.2938C15.6105 40.4824 15.9797 39.8344 15.9797 39.3012C15.9797 38.7926 15.9551 35.9871 15.9551 34.2645C15.9551 34.2645 10.2129 35.4949 9.00703 31.8199C9.00703 31.8199 8.07188 29.4328 6.72656 28.8176C6.72656 28.8176 4.84805 27.5297 6.85781 27.5543C6.85781 27.5543 8.90039 27.7184 10.0242 29.6707C11.8207 32.8371 14.8313 31.9266 16.0043 31.3852C16.193 30.0727 16.7262 29.1621 17.3168 28.6207C12.7313 28.1121 8.10469 27.4477 8.10469 19.5562C8.10469 17.3004 8.72813 16.1684 10.0406 14.7246C9.82734 14.1914 9.13008 11.993 10.2539 9.15469C11.9684 8.62148 15.9141 11.3695 15.9141 11.3695C17.5547 10.9102 19.3184 10.6723 21.0656 10.6723C22.8129 10.6723 24.5766 10.9102 26.2172 11.3695C26.2172 11.3695 30.1629 8.61328 31.8773 9.15469C33.0012 12.0012 32.3039 14.1914 32.0906 14.7246C33.4031 16.1766 34.207 17.3086 34.207 19.5562C34.207 27.4723 29.3754 28.1039 24.7898 28.6207C25.5445 29.2687 26.1844 30.4992 26.1844 32.427C26.1844 35.1914 26.1598 38.6121 26.1598 39.2848C26.1598 39.818 26.5371 40.466 27.5789 40.2773C35.782 37.5539 41.3438 29.7691 41.3438 20.6719C41.3438 9.29414 32.1152 0.65625 20.7375 0.65625ZM8.62969 28.9488C8.52305 29.0309 8.54766 29.2195 8.68711 29.3754C8.81836 29.5066 9.00703 29.5641 9.11367 29.4574C9.22031 29.3754 9.1957 29.1867 9.05625 29.0309C8.925 28.8996 8.73633 28.8422 8.62969 28.9488ZM7.74375 28.2844C7.68633 28.391 7.76836 28.5223 7.93242 28.6043C8.06367 28.6863 8.22773 28.6617 8.28516 28.5469C8.34258 28.4402 8.26055 28.309 8.09648 28.227C7.93242 28.1777 7.80117 28.2023 7.74375 28.2844ZM10.4016 31.2047C10.2703 31.3113 10.3195 31.5574 10.5082 31.7133C10.6969 31.902 10.9348 31.9266 11.0414 31.7953C11.148 31.6887 11.0988 31.4426 10.9348 31.2867C10.7543 31.098 10.5082 31.0734 10.4016 31.2047ZM9.46641 29.9988C9.33516 30.0809 9.33516 30.2941 9.46641 30.4828C9.59766 30.6715 9.81914 30.7535 9.92578 30.6715C10.057 30.5648 10.057 30.3516 9.92578 30.1629C9.81094 29.9742 9.59766 29.8922 9.46641 29.9988Z" fill="currentColor"/>
</svg>
