<svg width="23" height="23" viewBox="0 0 23 23" fill="none" xmlns="http://www.w3.org/2000/svg">
<path d="M11.8191 5.88965C8.71362 5.88965 6.20874 8.39453 6.20874 11.5C6.20874 14.6055 8.71362 17.1103 11.8191 17.1103C14.9246 17.1103 17.4294 14.6055 17.4294 11.5C17.4294 8.39453 14.9246 5.88965 11.8191 5.88965ZM11.8191 15.1475C9.81226 15.1475 8.17163 13.5117 8.17163 11.5C8.17163 9.48828 9.80737 7.85254 11.8191 7.85254C13.8308 7.85254 15.4666 9.48828 15.4666 11.5C15.4666 13.5117 13.8259 15.1475 11.8191 15.1475ZM18.9675 5.66016C18.9675 6.3877 18.3816 6.96875 17.6589 6.96875C16.9314 6.96875 16.3503 6.38281 16.3503 5.66016C16.3503 4.9375 16.9363 4.35156 17.6589 4.35156C18.3816 4.35156 18.9675 4.9375 18.9675 5.66016ZM22.6833 6.98828C22.6003 5.23535 22.2 3.68262 20.9158 2.40332C19.6365 1.12402 18.0837 0.723633 16.3308 0.635742C14.5242 0.533203 9.10913 0.533203 7.30249 0.635742C5.55444 0.71875 4.00171 1.11914 2.71753 2.39844C1.43335 3.67773 1.03784 5.23047 0.949951 6.9834C0.847412 8.79004 0.847412 14.2051 0.949951 16.0117C1.03296 17.7646 1.43335 19.3174 2.71753 20.5967C4.00171 21.876 5.54956 22.2764 7.30249 22.3643C9.10913 22.4668 14.5242 22.4668 16.3308 22.3643C18.0837 22.2812 19.6365 21.8809 20.9158 20.5967C22.1951 19.3174 22.5955 17.7646 22.6833 16.0117C22.7859 14.2051 22.7859 8.79492 22.6833 6.98828ZM20.3494 17.9502C19.9685 18.9072 19.2312 19.6445 18.2693 20.0303C16.8289 20.6016 13.4109 20.4697 11.8191 20.4697C10.2273 20.4697 6.80444 20.5967 5.3689 20.0303C4.41186 19.6494 3.67456 18.9121 3.28882 17.9502C2.71753 16.5098 2.84937 13.0918 2.84937 11.5C2.84937 9.9082 2.72241 6.48535 3.28882 5.0498C3.66968 4.09277 4.40698 3.35547 5.3689 2.96973C6.80933 2.39844 10.2273 2.53027 11.8191 2.53027C13.4109 2.53027 16.8337 2.40332 18.2693 2.96973C19.2263 3.35059 19.9636 4.08789 20.3494 5.0498C20.9207 6.49023 20.7888 9.9082 20.7888 11.5C20.7888 13.0918 20.9207 16.5146 20.3494 17.9502Z" fill="currentColor"/>
</svg>
