<svg width="25" height="26" viewBox="0 0 25 26" fill="none" xmlns="http://www.w3.org/2000/svg">
<path d="M21.0938 16.125H19.5312C19.324 16.125 19.1253 16.2073 18.9788 16.3538C18.8323 16.5003 18.75 16.699 18.75 16.9062V22.375H3.125V6.75H10.1562C10.3635 6.75 10.5622 6.66769 10.7087 6.52118C10.8552 6.37466 10.9375 6.17595 10.9375 5.96875V4.40625C10.9375 4.19905 10.8552 4.00034 10.7087 3.85382C10.5622 3.70731 10.3635 3.625 10.1562 3.625H2.34375C1.72215 3.625 1.12601 3.87193 0.686468 4.31147C0.24693 4.75101 0 5.34715 0 5.96875L0 23.1562C0 23.7779 0.24693 24.374 0.686468 24.8135C1.12601 25.2531 1.72215 25.5 2.34375 25.5H19.5312C20.1529 25.5 20.749 25.2531 21.1885 24.8135C21.6281 24.374 21.875 23.7779 21.875 23.1562V16.9062C21.875 16.699 21.7927 16.5003 21.6462 16.3538C21.4997 16.2073 21.301 16.125 21.0938 16.125ZM23.8281 0.5H17.5781C16.5347 0.5 16.0132 1.76514 16.748 2.50195L18.4927 4.24658L6.5918 16.1431C6.48255 16.2519 6.39586 16.3813 6.33672 16.5237C6.27757 16.6662 6.24712 16.8189 6.24712 16.9731C6.24712 17.1274 6.27757 17.2801 6.33672 17.4225C6.39586 17.565 6.48255 17.6944 6.5918 17.8032L7.69873 18.9082C7.8076 19.0175 7.93697 19.1041 8.07941 19.1633C8.22186 19.2224 8.37457 19.2529 8.52881 19.2529C8.68304 19.2529 8.83576 19.2224 8.9782 19.1633C9.12065 19.1041 9.25002 19.0175 9.35889 18.9082L21.2539 7.00977L22.998 8.75195C23.7305 9.48438 25 8.97168 25 7.92188V1.67188C25 1.36107 24.8765 1.063 24.6568 0.843234C24.437 0.623465 24.1389 0.5 23.8281 0.5Z" fill="#FFA74F"/>
</svg>
