<svg width="23" height="23" viewBox="0 0 23 23" fill="none" xmlns="http://www.w3.org/2000/svg">
<path d="M5.65674 22.4373H1.12158V7.83276H5.65674V22.4373ZM3.38672 5.84058C1.93652 5.84058 0.760254 4.6394 0.760254 3.18921C0.760254 2.49263 1.03697 1.82458 1.52953 1.33202C2.02209 0.83946 2.69014 0.562744 3.38672 0.562744C4.0833 0.562744 4.75135 0.83946 5.24391 1.33202C5.73647 1.82458 6.01318 2.49263 6.01318 3.18921C6.01318 4.6394 4.83643 5.84058 3.38672 5.84058ZM22.6304 22.4373H18.105V15.3279C18.105 13.6335 18.0708 11.4607 15.7471 11.4607C13.3892 11.4607 13.0278 13.3015 13.0278 15.2058V22.4373H8.49756V7.83276H12.8472V9.82495H12.9106C13.5161 8.67749 14.9951 7.46655 17.2017 7.46655C21.7915 7.46655 22.6353 10.489 22.6353 14.4148V22.4373H22.6304Z" fill="currentColor"/>
</svg>
